<?xml version="1.0" encoding="UTF-8"?>
<svg id="Layer_1" xmlns="http://www.w3.org/2000/svg" version="1.1" viewBox="0 0 512 512">
  <!-- Generator: Adobe Illustrator 29.8.3, SVG Export Plug-In . SVG Version: 2.1.1 Build 3)  -->
  <defs>
    <style>
      .st0 {
        fill: #323232;
      }
    </style>
  </defs>
  <path class="st0" d="M489,17.27C474.46,5.07,455.23,0,436.57,3.44l-131.84,23.96c-18.87,3.4-36.03,13.07-48.73,27.43-12.68-14.39-29.85-24.08-48.73-27.5L75.43,3.38C40.66-2.94,7.34,20.14,1.03,54.91.35,58.68,0,62.5,0,66.33v398.13l256,46.57,256-46.57V66.33c0-18.96-8.42-36.94-23-49.07ZM234.67,463.73l-192-34.86V66.33c.01-11.78,9.57-21.33,21.35-21.32,1.27,0,2.55.12,3.8.34l131.82,23.96c20.29,3.69,35.03,21.36,35.03,41.98v352.43ZM469.33,428.83l-192,34.9V111.3c0-20.62,14.74-38.29,35.03-41.98l131.82-23.96c11.59-2.11,22.7,5.58,24.81,17.17.23,1.25.34,2.53.34,3.8v362.5Z"/>
</svg>