<?xml version="1.0" encoding="UTF-8"?>
<svg id="Layer_1" xmlns="http://www.w3.org/2000/svg" version="1.1" viewBox="0 0 512 512">
  <!-- Generator: Adobe Illustrator 29.8.3, SVG Export Plug-In . SVG Version: 2.1.1 Build 3)  -->
  <defs>
    <style>
      .st0 {
        fill: #323232;
      }
    </style>
  </defs>
  <path class="st0" d="M64,469.33h106.67v42.67h-106.67c-35.29,0-64-28.71-64-64v-106.67h42.67v106.67c0,11.78,9.56,21.33,21.33,21.33ZM469.33,448c0,11.78-9.56,21.33-21.33,21.33h-106.67v42.67h106.67c35.29,0,64-28.71,64-64v-106.67h-42.67v106.67ZM448,0h-106.67v42.67h106.67c11.78,0,21.33,9.56,21.33,21.33v106.67h42.67v-106.67c0-35.29-28.71-64-64-64ZM42.67,64c0-11.78,9.56-21.33,21.33-21.33h106.67V0h-106.67C28.71,0,0,28.71,0,64v106.67h42.67v-106.67ZM256,298.67c23.57,0,42.67-19.09,42.67-42.67s-19.09-42.67-42.67-42.67-42.67,19.09-42.67,42.67,19.09,42.67,42.67,42.67ZM181.33,149.33h9.9l28.37-42.67h72.79l28.37,42.67h9.9c29.42,0,53.33,23.91,53.33,53.33v160H128v-160c0-29.42,23.91-53.33,53.33-53.33ZM330.67,192h-149.33c-5.87,0-10.67,4.8-10.67,10.67v117.33h170.67v-117.33c0-5.87-4.8-10.67-10.67-10.67Z"/>
</svg>