<?xml version="1.0" encoding="UTF-8"?>
<svg id="Layer_1" xmlns="http://www.w3.org/2000/svg" version="1.1" viewBox="0 0 512 512">
  <!-- Generator: Adobe Illustrator 29.8.3, SVG Export Plug-In . SVG Version: 2.1.1 Build 3)  -->
  <defs>
    <style>
      .st0 {
        fill: #323232;
      }
    </style>
  </defs>
  <path class="st0" d="M451.62,421.46c11.18-16.87,17.71-37.08,17.71-58.79,0-58.82-47.85-106.67-106.67-106.67s-106.67,47.85-106.67,106.67,47.85,106.67,106.67,106.67c21.72,0,41.92-6.53,58.79-17.71l54.12,54.12c4.16,4.16,9.62,6.25,15.08,6.25s10.92-2.09,15.08-6.25c8.34-8.34,8.34-21.82,0-30.17,0,0-54.12-54.12-54.12-54.12ZM298.66,362.67c0-35.29,28.71-64,64-64s64,28.71,64,64-28.71,64-64,64-64-28.71-64-64ZM128,96c0,17.66-14.34,32-32,32s-32-14.34-32-32,14.34-32,32-32,32,14.34,32,32ZM213.33,96c0,17.66-14.34,32-32,32s-32-14.34-32-32,14.34-32,32-32,32,14.34,32,32ZM405.33,0H106.67C47.85,0,0,47.85,0,106.67v299C0,464.48,47.85,512.33,106.67,512.33h106.67c11.8,0,21.33-9.54,21.33-21.33s-9.54-21.33-21.33-21.33h-106.67c-35.28,0-64-28.71-64-64v-213.67h426.66v64c0,11.78,9.54,21.33,21.33,21.33s21.33-9.56,21.33-21.33V106.67c0-58.82-47.85-106.67-106.67-106.67ZM42.67,149.33v-42.67c0-35.29,28.71-64,64-64h298.66c35.28,0,64,28.71,64,64v42.67H42.67Z"/>
</svg>