<?xml version="1.0" encoding="UTF-8"?>
<svg id="Layer_1" xmlns="http://www.w3.org/2000/svg" version="1.1" viewBox="0 0 512 512">
  <!-- Generator: Adobe Illustrator 29.8.3, SVG Export Plug-In . SVG Version: 2.1.1 Build 3)  -->
  <defs>
    <style>
      .st0 {
        fill: #323232;
      }
    </style>
  </defs>
  <path class="st0" d="M489.09,133.6c30.51-30.55,30.51-80.2,0-110.69-30.51-30.55-80.22-30.55-110.7,0l-233.33,233.3c-32.19-1.77-64.96,9.62-89.52,34.16C23.52,322.42,5.43,412.86.35,456.17c-1.79,15.21,3.37,30.13,14.17,40.92,9.37,9.39,21.87,14.53,34.99,14.53,1.98,0,3.97-.13,5.93-.36,5.14-.6,126.68-15.32,166.17-54.81,24.53-24.54,35.9-57.31,34.13-89.5,0,0,233.35-233.34,233.35-233.34ZM145.19,256.21h0s.02-.02,0,0ZM191.42,426.26c-18.22,18.22-87.36,36.29-141,42.61-2.88.45-4.86-1.07-5.76-1.96-.87-.87-2.3-2.79-1.96-5.78,6.27-53.38,25.05-122.61,43.01-140.6,14.59-14.57,33.71-21.85,52.87-21.85s38.27,7.3,52.87,21.85c29.14,29.14,29.14,76.57,0,105.72l-.02.02ZM221.58,290.37c-8.77-8.77-18.6-15.87-29.08-21.27L408.53,53.06c13.87-13.87,36.5-13.87,50.37,0,13.87,13.87,13.87,36.46,0,50.35l-216.05,216.04c-5.42-10.48-12.5-20.31-21.27-29.08Z"/>
  <path class="st0" d="M100.73,211.39c4.16,4.16,9.62,6.25,15.08,6.25s10.92-2.09,15.08-6.25c8.34-8.34,8.34-21.83,0-30.17L53.11,103.43c-13.89-13.89-13.89-36.48,0-50.37,13.89-13.87,36.5-13.87,50.35,0l77.78,77.81c8.34,8.34,21.82,8.34,30.17,0s8.34-21.83,0-30.17L133.62,22.89c-30.55-30.51-80.19-30.51-110.7-.02-30.51,30.49-30.53,80.2,0,110.71l77.78,77.79.02.02Z"/>
  <path class="st0" d="M474.5,363.81l-63.04-63.07c-8.34-8.34-21.82-8.34-30.17,0-8.34,8.34-8.34,21.83,0,30.17l63.04,63.07c15.89,15.87,25,37.85,25,60.34v15.02h-15c-22.81,0-44.25-8.88-60.35-25l-63.06-63.05c-8.34-8.34-21.82-8.34-30.17,0-8.34,8.34-8.34,21.83,0,30.17l63.06,63.05c24.15,24.19,56.32,37.51,90.52,37.51h36.33c11.8,0,21.33-9.54,21.33-21.34v-36.36c0-33.71-13.68-66.71-37.5-90.5Z"/>
</svg>