<?xml version="1.0" encoding="UTF-8"?>
<svg id="Layer_1" xmlns="http://www.w3.org/2000/svg" version="1.1" viewBox="0 0 512 512">
  <!-- Generator: Adobe Illustrator 29.8.3, SVG Export Plug-In . SVG Version: 2.1.1 Build 3)  -->
  <defs>
    <style>
      .st0 {
        fill: #323232;
      }
    </style>
  </defs>
  <path class="st0" d="M149.33,341.33s21.33-128,106.67-128c35.35,0,64,28.65,64,64s-28.65,64-64,64h-106.67ZM311.87,186.88l122.41-137.58c7.42-8.3,20.18-9,28.46-1.58.28.26.53.49.81.77,7.87,7.85,7.87,20.59,0,28.46-7.87,7.87-128.9,128.94-128.9,128.94,9.92,10.9,17.43,23.85,22.17,38.14l136.81-136.81c24.49-24.53,24.49-64.28,0-88.81C481.26,6.02,464.23,0,448,0s-31.02,6.23-43.16,18.37c-2.62,2.45-134.21,150.78-136.79,153.51,15.94,1.83,30.78,6.93,43.82,15ZM181.33,106.67c-17.66,0-32,14.34-32,32s14.34,32,32,32,32-14.34,32-32-14.34-32-32-32ZM469.33,234.67v234.67H42.67v-234.67h103.51c11.22-16.66,25.19-31.36,41.81-42.67H42.67v-85.33c0-11.73,9.6-21.33,21.33-21.33h223.96l37.97-42.67H64C28.65,42.67,0,71.32,0,106.67v396.67C0,508.12,3.88,512,8.66,512h494.68c4.78,0,8.66-3.88,8.66-8.66V149.21l-85.46,85.46h42.79ZM64,138.67c0,17.66,14.34,32,32,32s32-14.34,32-32-14.34-32-32-32-32,14.34-32,32ZM106.67,426.67h298.67v-42.67H106.67v42.67Z"/>
</svg>